<svg id="bold" enable-background="new 0 0 32 32" height="512" viewBox="0 0 32 32" width="512" xmlns="http://www.w3.org/2000/svg"><path d="m26 32h-20c-3.314 0-6-2.686-6-6v-20c0-3.314 2.686-6 6-6h20c3.314 0 6 2.686 6 6v20c0 3.314-2.686 6-6 6z" fill="#f5e6fe"/><path d="m16.167 12h-4.333c-.643 0-1.167-.523-1.167-1.167v-1c0-.276.224-.5.5-.5h1.069c.218-.768.926-1.333 1.764-1.333s1.546.565 1.764 1.333h1.069c.276 0 .5.224.5.5v1c0 .644-.523 1.167-1.166 1.167z" fill="#d9a4fc"/><path d="m22.667 22c-.126 0-.242-.071-.298-.184l-.859-1.718c-.115-.23-.176-.488-.176-.745v-6.019c0-.735.598-1.333 1.333-1.333.735-.001 1.333.597 1.333 1.332v6.019c0 .257-.061.515-.176.745l-.859 1.718c-.057.114-.172.185-.298.185zm.859-2.052h.007z" fill="#d9a4fc"/><path d="m18.167 10h-.167v.833c0 1.011-.822 1.833-1.833 1.833h-4.333c-1.011 0-1.833-.822-1.833-1.833v-.833h-.168c-1.011 0-1.833.822-1.833 1.833v10.333c0 1.012.822 1.834 1.833 1.834h8.333c1.012 0 1.834-.822 1.834-1.833v-10.334c0-1.011-.822-1.833-1.833-1.833zm-.667 12h-7c-.276 0-.5-.224-.5-.5s.224-.5.5-.5h7c.276 0 .5.224.5.5s-.224.5-.5.5zm0-2h-7c-.276 0-.5-.224-.5-.5s.224-.5.5-.5h7c.276 0 .5.224.5.5s-.224.5-.5.5zm0-2h-7c-.276 0-.5-.224-.5-.5s.224-.5.5-.5h7c.276 0 .5.224.5.5s-.224.5-.5.5zm0-2h-7c-.276 0-.5-.224-.5-.5s.224-.5.5-.5h7c.276 0 .5.224.5.5s-.224.5-.5.5z" fill="#be63f9"/></svg>